# Blender v2.82 (sub 7) OBJ File: 'mundo.blend'
# www.blender.org
mtllib facha_principal.mtl
o fachada_principal_Cube.001
v -2.186970 -0.038357 2.000000
v -2.186970 8.599225 2.000001
v -2.186970 8.599225 -1.999999
v -2.186970 -0.038356 -2.000000
v 2.813030 8.599225 -1.999999
v 2.813030 -0.038356 -2.000000
v 2.813030 8.599225 2.000001
v 2.813030 -0.038357 2.000000
v -2.186970 2.982584 2.000000
v -2.186970 2.982584 -2.000000
v 2.813030 2.906882 -2.000000
v 2.813030 2.906881 2.000000
v -2.186970 1.954924 -2.000000
v 2.813030 1.954924 -2.000000
v 2.813030 1.954923 2.000000
v -2.186970 1.954923 2.000000
v -2.186970 3.494457 2.000001
v -2.186970 3.494457 -1.999999
v 2.813030 3.456606 -1.999999
v 2.813030 3.456605 2.000001
v -2.186970 4.316001 2.000001
v -2.186970 4.316002 -1.999999
v 2.813030 4.297076 -1.999999
v 2.813030 4.297075 2.000001
v -2.186970 7.210166 2.000001
v -2.186970 7.210167 -1.999999
v 2.813030 7.200705 -1.999999
v 2.813030 7.200704 2.000001
v -2.186970 -0.038356 1.116332
v -2.186970 8.599225 1.116333
v 2.567062 -0.038356 1.116332
v 2.813030 8.599225 1.116333
v -2.186970 2.982584 1.116333
v -2.186970 1.954924 1.116332
v 2.567062 1.954924 1.116332
v 2.813030 3.456605 1.116333
v -2.186970 3.494457 1.116333
v 2.813030 4.297076 1.116333
v -2.186970 4.316001 1.116333
v 2.813030 7.200705 1.116333
v -2.186970 7.210167 1.116333
v -2.186970 -0.038356 -1.273099
v -2.186970 8.599225 -1.273098
v -2.186970 2.982584 -1.273098
v -2.186970 1.954924 -1.273099
v -2.186970 3.494457 -1.273098
v -2.186970 4.316001 -1.273098
v -2.186970 7.210167 -1.273098
v 2.813030 -0.038356 -1.273099
v 2.813030 8.599225 -1.273098
v 2.813030 2.906882 -1.273098
v 2.813030 1.954924 -1.273099
v 2.813030 3.456606 -1.273098
v 2.813030 4.297076 -1.273098
v 2.813030 7.200705 -1.273098
v 2.527074 -0.038356 -1.273099
v 2.527074 -0.038356 1.116332
v 2.527074 1.954924 -1.273099
v 2.527074 1.954924 1.116332
v 2.813030 2.906882 1.116333
v 2.813030 1.954924 1.116332
v 2.813030 -0.038356 1.116332
v 2.670809 2.906882 -1.273098
v 2.670809 2.906881 1.116333
v 2.670809 3.456606 -1.273098
v 2.670809 3.456605 1.116333
v 2.911941 8.599225 -1.273098
v 2.911941 8.599225 1.116333
v 2.911941 3.456606 -1.273098
v 2.911941 3.456605 1.116333
v 2.911941 4.431223 -1.128935
v 2.911941 4.431223 0.972170
v 2.911941 7.066557 -1.128935
v 2.911941 7.066557 0.972170
v 0.313030 -0.038356 -2.000000
v 0.313030 8.599225 -1.999999
v 0.313030 -0.038357 2.000000
v 0.313030 8.599225 2.000001
v 0.313030 2.944732 2.000000
v 0.313030 2.944733 -2.000000
v 0.313030 1.954924 -2.000000
v 0.313030 1.954923 2.000000
v 0.313030 3.475531 2.000001
v 0.313030 3.475531 -1.999999
v 0.313030 4.306538 2.000001
v 0.313030 4.306539 -1.999999
v 0.313030 7.205435 2.000001
v 0.313030 7.205436 -1.999999
v 0.313030 8.599225 1.116333
v 0.190046 -0.038356 1.116332
v 0.313030 -0.038356 -1.273099
v 0.313030 8.599225 -1.273098
v -0.936970 2.963658 2.000000
v -0.936970 1.954923 2.000000
v -0.936970 3.484994 2.000001
v -0.936970 4.311269 2.000001
v -0.936970 7.207801 2.000001
v -0.998462 -0.038356 1.116332
v -0.936970 -0.038356 -1.273099
v -0.936970 -0.038356 -2.000000
v -0.936970 8.599225 -1.999999
v -0.936970 -0.038357 2.000000
v -0.936970 8.599225 2.000001
v -0.936970 2.963659 -2.000000
v -0.936970 1.954924 -2.000000
v -0.936970 3.484994 -1.999999
v -0.936970 4.311270 -1.999999
v -0.936970 7.207802 -1.999999
v -0.936970 8.599225 -1.273098
v -2.186970 10.680237 2.000001
v -2.186970 10.680237 1.116333
v -2.186970 10.680237 -1.273098
v -0.936970 10.680237 2.000001
v 0.313030 10.680237 2.000001
v -0.936970 10.680237 1.116333
v 0.313030 10.680237 1.116333
v -0.936970 10.680237 -1.273098
v 0.313030 10.680237 -1.273098
v 0.313030 10.284746 -1.273098
v -0.936970 10.284746 -1.273098
v -2.186970 10.284746 -1.273098
v -2.186970 10.284746 1.116333
v -0.936970 10.284746 2.000001
v -2.186970 10.284746 2.000001
v 0.313030 10.284746 2.000001
v 0.313030 10.284746 1.116333
v 2.911941 4.297076 -1.273098
v 2.911941 4.297076 1.116333
v 2.911941 7.200705 -1.273098
v 2.911941 7.200705 1.116333
v 2.670809 3.456605 0.419754
v 2.670809 2.906881 0.419754
v 2.670809 3.181743 1.116333
v 2.670809 3.181744 -1.273098
v 2.670809 3.181744 0.419754
v 2.527074 -0.038356 0.377688
v 2.527074 1.954924 0.377689
v 2.527074 0.958284 1.116332
v 2.527074 0.958284 -1.273099
v 2.527074 0.958284 0.377688
v 2.860703 4.431223 -1.128935
v 2.860703 4.431223 0.972170
v 2.860703 7.066557 -1.128935
v 2.860703 7.066557 0.972170
v 0.313030 8.733082 -1.273098
v -2.186970 8.733082 -1.273098
v -2.186970 8.733082 2.000001
v -0.936970 8.733082 -1.273098
v -2.186970 8.733082 1.116333
v -0.936970 8.733082 2.000001
v 0.313030 8.733082 2.000001
v 0.313030 8.733082 1.116333
vt 0.375000 0.625000
vt 0.250000 0.750000
vt 0.250000 0.625000
vt 0.341316 0.097503
vt 0.249605 0.205939
vt 0.341316 0.206387
vt 0.281115 0.380150
vt 0.295992 0.671292
vt 0.281115 0.671292
vt 0.481760 0.265177
vt 0.455175 0.265178
vt 0.455175 0.244554
vt 0.375000 0.625000
vt 0.406250 0.625000
vt 0.504264 0.745116
vt 0.632251 0.718120
vt 0.632251 0.745116
vt 0.000000 0.000000
vt 0.000000 0.000000
vt 0.000000 0.000000
vt 0.375000 0.500000
vt 0.250000 0.562500
vt 0.250000 0.500000
vt 0.444652 0.338176
vt 0.343490 0.311472
vt 0.444652 0.311472
vt 0.578116 0.079311
vt 0.578131 0.095874
vt 0.444457 0.095874
vt 0.686547 0.207290
vt 0.640702 0.207290
vt 0.640702 0.146349
vt 0.437500 0.625000
vt 0.500000 0.625000
vt 0.437500 0.625000
vt 0.417174 0.084941
vt 0.453087 0.084434
vt 0.414928 0.091277
vt 0.500000 0.625000
vt 0.531250 0.625000
vt 0.635978 0.282459
vt 0.635978 0.286796
vt 0.412713 0.286796
vt 0.608387 0.567301
vt 0.594738 0.567301
vt 0.594738 0.567301
vt 0.295992 0.755565
vt 0.281115 0.755565
vt 0.187500 0.562500
vt 0.187500 0.500000
vt 0.000000 0.000000
vt 0.000000 0.000000
vt 0.000000 0.000000
vt 0.187500 0.750000
vt 0.187500 0.625000
vt 0.125000 0.750000
vt 0.125000 0.625000
vt 0.125000 0.562500
vt 0.125000 0.500000
vt 0.466159 0.830783
vt 0.343267 0.856704
vt 0.343267 0.830783
vt 0.589051 0.830783
vt 0.466159 0.856704
vt 0.376276 0.745116
vt 0.504264 0.718120
vt 0.332549 0.877133
vt 0.277543 0.901442
vt 0.277543 0.877133
vt 0.481286 0.877133
vt 0.332549 0.901442
vt 0.481286 0.873039
vt 0.332549 0.873039
vt 0.277543 0.873039
vt 0.376276 0.802642
vt 0.504264 0.802642
vt 0.589051 0.775546
vt 0.466159 0.775546
vt 0.343267 0.775546
vt 0.632251 0.802642
vt 0.343490 0.288101
vt 0.444652 0.288101
vt 0.636245 0.314897
vt 0.446501 0.288632
vt 0.636245 0.288632
vt 0.636245 0.338331
vt 0.446501 0.314897
vt 0.629689 0.150923
vt 0.421344 0.103877
vt 0.629689 0.103877
vt 0.629689 0.197970
vt 0.421344 0.150923
vt 0.617076 0.417571
vt 0.361954 0.710978
vt 0.361952 0.417571
vt 0.608387 0.620199
vt 0.608387 0.567301
vt 0.594738 0.620199
vt 0.608387 0.620199
vt 0.594738 0.620199
vt 0.272240 0.235994
vt 0.285341 0.310210
vt 0.272240 0.310210
vt 0.285342 0.566608
vt 0.272240 0.566608
vt 0.504264 0.860169
vt 0.632251 0.860169
vt 0.466159 0.720310
vt 0.343267 0.720310
vt 0.589051 0.720310
vt 0.376276 0.860169
vt 0.332549 0.879808
vt 0.277543 0.875714
vt 0.277543 0.879808
vt 0.481286 0.879808
vt 0.332549 0.875714
vt 0.375000 0.750000
vt 0.248949 0.084520
vt 0.295992 0.380150
vt 0.455175 0.225722
vt 0.481760 0.225722
vt 0.437500 0.625000
vt 0.000000 0.000000
vt 0.375000 0.562500
vt 0.343490 0.338176
vt 0.384644 0.095874
vt 0.384644 0.093715
vt 0.384644 0.080437
vt 0.640702 0.085408
vt 0.686547 0.085408
vt 0.562500 0.625000
vt 0.562500 0.625000
vt 0.344308 0.286796
vt 0.344308 0.282459
vt 0.000000 0.000000
vt 0.000000 0.000000
vt 0.000000 0.000000
vt 0.000000 0.000000
vt 0.589051 0.856704
vt 0.376276 0.718120
vt 0.481286 0.901442
vt 0.446501 0.338331
vt 0.421344 0.197970
vt 0.617076 0.710978
vt 0.285341 0.235994
vt 0.481286 0.875714
vt 0.522340 0.991252
vt 0.012645 0.017261
vt 0.522341 0.017261
vt 1.895099 -2.636461
vt 3.762755 -3.330626
vt 3.762755 -2.634104
vt 0.976707 1.100720
vt 0.267797 2.222664
vt 0.267797 1.100720
vt 0.644538 0.281322
vt 0.016425 0.000207
vt 0.644538 0.000207
vt 1.895099 -0.021485
vt 3.762755 -0.495600
vt 3.762755 -0.021485
vt 0.522340 -2.947070
vt 0.012645 -3.667652
vt 0.522340 -3.667652
vt 0.012645 -5.065315
vt 0.522339 -5.065315
vt 3.762755 0.971251
vt 1.895099 0.971251
vt -4.658068 1.564395
vt -3.716750 0.931884
vt -3.716750 1.564395
vt 1.895099 -0.514452
vt 3.762755 -0.769387
vt 0.012645 -2.588150
vt 0.012645 -2.947069
vt -4.658068 0.006820
vt -4.658068 0.931884
vt 1.895099 -0.778812
vt 3.762755 -1.187976
vt 0.522340 -2.012093
vt 0.522340 -2.588151
vt 0.004386 -2.969361
vt -1.197325 0.979316
vt -1.197325 -2.969361
vt 1.895099 -1.192688
vt 0.012645 -2.012092
vt 2.817397 0.017260
vt 2.197780 -2.012093
vt 2.817397 -2.012094
vt 0.001206 0.391791
vt 3.657415 0.350397
vt 3.657415 0.391791
vt 2.197779 -2.588151
vt 2.817397 -2.588151
vt 2.817397 -2.947070
vt 2.197779 -2.947070
vt 2.817396 -5.065315
vt 2.197779 -3.667652
vt 2.197779 -5.065315
vt 2.817397 -3.667653
vt 2.365499 0.339679
vt 2.365499 0.700149
vt 1.283001 0.758753
vt 0.393560 1.100142
vt 0.314210 -0.021802
vt 0.393560 -0.021802
vt 2.817397 0.991251
vt 2.197780 0.017261
vt 0.976706 -0.021803
vt 0.677569 0.968627
vt 0.027137 -0.149876
vt 0.677569 -0.149876
vt 6.246405 1.077013
vt 4.916689 0.083408
vt 6.246405 0.083408
vt 0.984810 0.999940
vt 0.000061 0.000060
vt 0.984810 0.000060
vt -0.157162 -0.629480
vt 0.930961 -0.010780
vt -0.157162 -0.010779
vt -0.096312 0.011004
vt 0.991810 0.933462
vt -0.096312 0.933462
vt 0.993739 0.979316
vt 0.005217 -2.969361
vt 0.993738 -2.969361
vt 2.197780 0.991252
vt 1.162719 0.002796
vt -0.026561 1.062158
vt -0.026561 0.002796
vt -0.007237 0.139810
vt 0.988150 0.139810
vt 0.916576 0.525523
vt 4.994576 1.131043
vt 1.172616 0.030916
vt 4.994576 0.030916
vt -0.027226 0.650853
vt -0.027226 0.306566
vt 1.188856 0.306565
vt -3.619079 0.019396
vt -0.146074 0.947048
vt -3.619078 0.947048
vt -1.602678 1.100142
vt -1.602678 -0.021801
vt 4.144197 0.650853
vt -0.027226 0.890297
vt 0.017239 0.009559
vt 0.941685 0.992321
vt 0.017239 0.992321
vt 0.017239 -0.487786
vt 0.941686 0.009559
vt 0.017239 -3.266335
vt 0.941686 -2.581477
vt 0.017240 -2.580310
vt 3.183043 0.986663
vt 2.619302 -0.952191
vt 3.183043 -0.952191
vt 2.619301 0.986663
vt 0.766198 -0.952191
vt 0.961270 -1.195045
vt 3.716110 0.302798
vt 1.867218 -1.124137
vt 3.716110 -1.128802
vt 0.961271 -0.783524
vt 1.867218 -1.533855
vt 3.716110 -1.543186
vt 0.961271 -0.523877
vt 1.867218 -1.795558
vt 3.716110 -1.814221
vt 3.716110 -2.283573
vt 1.867217 -3.266335
vt 3.716110 -3.266335
vt 0.961271 -0.021485
vt 0.961271 0.971251
vt 1.867218 -2.283572
vt 0.766198 0.986663
vt 0.080877 -0.952191
vt 3.716110 0.992321
vt 1.867217 0.305130
vt 0.961271 -2.637639
vt 1.895099 -3.330626
vt 0.027442 -2.638817
vt 0.961271 -3.330626
vt 0.027443 -0.021485
vt 0.027443 0.971251
vt 0.027443 -0.533303
vt 0.027443 -0.788237
vt 0.027442 -1.197401
vt 0.027137 -1.268378
vt 0.677569 -1.268377
vt 0.942772 -1.121804
vt 0.942772 -1.529189
vt 0.942772 -1.786227
vt 0.942771 -3.266335
vt 0.942772 -2.283572
vt 2.342949 0.281322
vt 2.342950 0.000207
vt 1.867217 0.992321
vt 0.942771 0.306296
vt 0.710749 0.992442
vt 0.014681 0.007812
vt 0.710749 0.007812
vt 2.592912 0.992442
vt 2.592912 0.007812
vt 0.710749 -0.976816
vt 2.592912 -0.976817
vt 0.014682 -0.976816
vt 0.644538 0.880358
vt 2.342950 0.880358
vt 0.016425 0.281322
vt -0.816717 -2.404411
vt 2.111366 -2.666824
vt 1.923361 -2.404411
vt 1.923360 2.750726
vt -1.004721 3.013139
vt -0.816718 2.750725
vt -1.004721 -2.666827
vt 2.111363 3.013142
vt 0.267219 2.222664
vt 0.187869 1.100720
vt 0.267218 1.100720
vt 0.017239 -0.744824
vt 0.941686 -0.497117
vt 0.017239 -1.152210
vt 0.941686 -0.749490
vt 0.941686 -1.154542
vt 0.016425 1.479394
vt 0.644538 1.479394
vt 2.342950 1.479394
vt 0.012645 0.991251
vt 0.976707 2.222664
vt -3.716750 0.006820
vt 0.004386 0.979316
vt 0.001206 0.350397
vt 2.365499 0.758753
vt -1.136268 0.758753
vt -1.139925 0.339711
vt 0.314210 1.100142
vt 0.976707 1.100142
vt 0.027137 0.968627
vt 4.916689 1.077013
vt 0.000060 0.999939
vt 0.930961 -0.629480
vt 0.991809 0.011005
vt 0.005217 0.979316
vt 1.162719 1.062158
vt 1.172616 1.131043
vt 4.144197 0.306569
vt -0.146074 0.019395
vt 4.144197 0.890297
vt 0.941686 -3.266335
vt 0.080877 0.986663
vt 0.027443 -3.330626
vt 0.942770 0.992321
vt 0.014681 0.992442
vt 0.016425 0.880358
vt 0.187868 2.222664
vn 0.0000 -1.0000 -0.0000
vn 0.9634 0.0000 -0.2682
vn 0.0000 -0.0000 -1.0000
vn 0.0000 -0.0000 1.0000
vn 1.0000 -0.0000 0.0000
vn 0.0000 1.0000 0.0000
vn -1.0000 0.0000 0.0000
g fachada_principal_Cube.001_fachada_principal_Cube.001_FACHADA
usemtl FACHADA
s off
f 31/1/1 77/2/1 90/3/1
f 35/4/2 8/5/2 31/6/2
f 55/7/3 127/8/3 54/9/3
f 53/10/4 65/11/4 134/12/4
f 31/1/3 57/13/3 138/14/3
f 123/15/4 110/16/4 124/17/4
f 98/18/1 42/19/1 99/20/1
f 6/21/1 91/22/1 75/23/1
f 131/24/5 133/25/5 135/26/5
f 49/27/6 56/28/6 136/29/6
f 52/30/4 58/31/4 139/32/4
f 35/33/3 60/34/3 61/35/3
f 31/36/6 8/37/6 62/38/6
f 60/34/3 64/39/3 133/40/3
f 51/41/6 63/42/6 132/43/6
f 73/44/4 141/45/4 71/46/4
f 54/9/3 69/47/3 53/48/3
f 75/23/1 99/49/1 100/50/1
f 90/51/1 91/52/1 136/53/1
f 90/3/1 102/54/1 98/55/1
f 98/55/1 1/56/1 29/57/1
f 100/50/1 42/58/1 4/59/1
f 90/51/1 99/20/1 91/52/1
f 120/60/3 118/61/3 119/62/3
f 121/63/3 117/64/3 120/60/3
f 125/65/4 113/66/4 123/15/4
f 126/67/5 114/68/5 125/69/5
f 119/70/5 116/71/5 126/67/5
f 145/72/5 126/67/5 152/73/5
f 152/73/5 125/69/5 151/74/5
f 151/75/4 123/15/4 150/76/4
f 146/77/3 120/60/3 148/78/3
f 148/78/3 119/62/3 145/79/3
f 150/76/4 124/17/4 147/80/4
f 135/26/5 64/81/5 132/82/5
f 134/83/5 132/84/5 63/85/5
f 65/86/5 135/87/5 134/83/5
f 139/88/5 136/89/5 56/90/5
f 58/91/5 140/92/5 139/88/5
f 141/93/5 144/94/5 142/95/5
f 74/96/1 143/97/1 73/44/1
f 72/98/3 144/99/3 74/96/3
f 71/46/6 142/100/6 72/98/6
f 36/101/4 128/102/4 38/103/4
f 38/103/4 130/104/4 40/105/4
f 103/106/4 147/80/4 2/107/4
f 109/108/3 145/79/3 92/109/3
f 43/110/3 148/78/3 109/108/3
f 78/111/4 150/76/4 103/106/4
f 89/112/5 151/113/5 78/114/5
f 92/115/5 152/116/5 89/112/5
f 31/1/1 8/117/1 77/2/1
f 35/4/2 15/118/2 8/5/2
f 55/7/3 129/119/3 127/8/3
f 63/120/4 51/121/4 134/12/4
f 51/121/4 53/10/4 134/12/4
f 59/122/3 35/33/3 138/14/3
f 35/33/3 31/1/3 138/14/3
f 123/15/4 113/66/4 110/16/4
f 98/18/1 29/123/1 42/19/1
f 6/21/1 49/124/1 91/22/1
f 131/24/5 66/125/5 133/25/5
f 136/29/6 57/126/6 31/127/6
f 31/127/6 62/128/6 136/29/6
f 62/128/6 49/27/6 136/29/6
f 56/129/4 49/130/4 139/32/4
f 49/130/4 52/30/4 139/32/4
f 66/131/3 36/132/3 133/40/3
f 36/132/3 60/34/3 133/40/3
f 64/133/6 60/134/6 132/43/6
f 60/134/6 51/41/6 132/43/6
f 73/44/4 143/97/4 141/45/4
f 54/9/3 127/8/3 69/47/3
f 75/23/1 91/22/1 99/49/1
f 57/135/4 31/136/4 90/51/4
f 91/52/4 49/137/4 56/138/4
f 136/53/1 57/135/1 90/51/1
f 91/52/1 56/138/1 136/53/1
f 90/3/1 77/2/1 102/54/1
f 98/55/1 102/54/1 1/56/1
f 100/50/1 99/49/1 42/58/1
f 90/51/1 98/18/1 99/20/1
f 120/60/3 117/64/3 118/61/3
f 121/63/3 112/139/3 117/64/3
f 125/65/4 114/140/4 113/66/4
f 126/67/5 116/71/5 114/68/5
f 119/70/5 118/141/5 116/71/5
f 145/72/5 119/70/5 126/67/5
f 152/73/5 126/67/5 125/69/5
f 151/75/4 125/65/4 123/15/4
f 146/77/3 121/63/3 120/60/3
f 148/78/3 120/60/3 119/62/3
f 150/76/4 123/15/4 124/17/4
f 135/26/5 133/25/5 64/81/5
f 134/83/5 135/87/5 132/84/5
f 65/86/5 131/142/5 135/87/5
f 139/88/5 140/92/5 136/89/5
f 58/91/5 137/143/5 140/92/5
f 141/93/5 143/144/5 144/94/5
f 74/96/1 144/99/1 143/97/1
f 72/98/3 142/100/3 144/99/3
f 71/46/6 141/45/6 142/100/6
f 36/101/4 70/145/4 128/102/4
f 38/103/4 128/102/4 130/104/4
f 103/106/4 150/76/4 147/80/4
f 109/108/3 148/78/3 145/79/3
f 43/110/3 146/77/3 148/78/3
f 78/111/4 151/75/4 150/76/4
f 89/112/5 152/116/5 151/113/5
f 92/115/5 145/146/5 152/116/5
g fachada_principal_Cube.001_fachada_principal_Cube.001_madera
usemtl madera
f 43/147/7 26/148/7 48/149/7
f 88/150/3 5/151/3 27/152/3
f 40/153/5 7/154/5 28/155/5
f 122/156/7 110/157/7 111/158/7
f 81/159/3 11/160/3 14/161/3
f 44/162/7 13/163/7 45/164/7
f 45/164/7 4/165/7 42/166/7
f 81/159/3 6/167/3 75/168/3
f 60/169/5 20/170/5 12/171/5
f 80/172/3 19/173/3 11/160/3
f 44/162/7 18/174/7 10/175/7
f 38/176/5 20/170/5 36/177/5
f 84/178/3 23/179/3 19/173/3
f 47/180/7 18/174/7 46/181/7
f 38/182/5 28/183/5 24/184/5
f 86/185/3 27/152/3 23/179/3
f 48/149/7 22/186/7 47/180/7
f 25/187/7 39/188/7 21/189/7
f 32/190/6 67/191/6 50/192/6
f 21/189/7 37/193/7 17/194/7
f 9/195/7 37/193/7 33/196/7
f 1/197/7 34/198/7 29/199/7
f 9/195/7 34/198/7 16/200/7
f 61/201/1 35/202/1 137/203/1
f 50/204/3 129/205/3 55/206/3
f 2/207/7 41/208/7 25/187/7
f 27/209/5 50/204/5 55/206/5
f 3/210/6 109/211/6 101/212/6
f 11/213/5 52/214/5 14/215/5
f 14/216/5 49/217/5 6/218/5
f 19/219/5 51/220/5 11/221/5
f 23/222/5 53/223/5 19/224/5
f 27/225/5 54/226/5 23/227/5
f 41/208/7 47/180/7 39/188/7
f 39/188/7 46/181/7 37/193/7
f 33/196/7 46/181/7 44/162/7
f 34/198/7 42/166/7 29/199/7
f 34/198/7 44/162/7 45/164/7
f 30/228/7 48/149/7 41/208/7
f 61/229/5 12/230/5 15/231/5
f 15/232/1 35/233/1 61/234/1
f 51/235/5 61/236/5 52/237/5
f 36/238/1 66/239/1 131/240/1
f 127/241/5 70/242/5 69/243/5
f 129/205/5 68/244/5 130/245/5
f 53/246/1 70/247/1 36/238/1
f 94/248/4 1/249/4 102/250/4
f 93/251/4 16/252/4 94/248/4
f 103/253/4 25/254/4 97/255/4
f 76/256/6 50/257/6 5/258/6
f 92/259/6 32/260/6 50/257/6
f 107/261/3 88/150/3 86/185/3
f 28/262/4 85/263/4 24/264/4
f 106/265/3 86/185/3 84/178/3
f 24/264/4 83/266/4 20/267/4
f 104/268/3 84/178/3 80/172/3
f 20/267/4 79/269/4 12/270/4
f 15/271/4 77/272/4 8/273/4
f 105/274/3 75/168/3 100/275/3
f 105/274/3 80/172/3 81/159/3
f 12/270/4 82/276/4 15/271/4
f 89/277/6 7/278/6 32/260/6
f 7/279/4 87/280/4 28/262/4
f 108/281/3 76/282/3 88/150/3
f 26/283/3 101/284/3 108/281/3
f 13/285/3 104/268/3 105/274/3
f 13/285/3 100/275/3 4/286/3
f 10/287/3 106/265/3 104/268/3
f 18/288/3 107/261/3 106/265/3
f 22/289/3 108/281/3 107/261/3
f 101/212/6 92/290/6 76/291/6
f 87/280/4 96/292/4 85/263/4
f 85/263/4 95/293/4 83/266/4
f 83/266/4 93/294/4 79/269/4
f 82/276/4 102/295/4 77/272/4
f 79/269/4 94/296/4 82/276/4
f 121/297/7 111/158/7 112/298/7
f 78/299/4 97/300/4 87/280/4
f 111/301/6 113/302/6 115/303/6
f 112/304/6 115/303/6 117/305/6
f 117/305/6 116/306/6 118/307/6
f 115/303/6 114/308/6 116/306/6
f 149/309/7 121/297/7 146/310/7
f 149/309/7 124/311/7 122/156/7
f 72/312/5 127/313/5 71/314/5
f 73/315/5 130/316/5 74/317/5
f 74/317/5 128/318/5 72/312/5
f 71/314/5 129/319/5 73/315/5
f 40/320/4 68/321/4 32/322/4
f 95/323/4 9/324/4 93/251/4
f 96/325/4 17/326/4 95/323/4
f 97/255/4 21/327/4 96/325/4
f 2/328/7 149/309/7 30/329/7
f 30/329/7 146/310/7 43/330/7
f 43/147/7 3/331/7 26/148/7
f 88/150/3 76/282/3 5/151/3
f 40/153/5 32/332/5 7/154/5
f 122/156/7 124/311/7 110/157/7
f 81/159/3 80/172/3 11/160/3
f 44/162/7 10/175/7 13/163/7
f 45/164/7 13/163/7 4/165/7
f 81/159/3 14/161/3 6/167/3
f 60/169/5 36/177/5 20/170/5
f 80/172/3 84/178/3 19/173/3
f 44/162/7 46/181/7 18/174/7
f 38/176/5 24/333/5 20/170/5
f 84/178/3 86/185/3 23/179/3
f 47/180/7 22/186/7 18/174/7
f 38/182/5 40/334/5 28/183/5
f 86/185/3 88/150/3 27/152/3
f 48/149/7 26/148/7 22/186/7
f 25/187/7 41/208/7 39/188/7
f 32/190/6 68/335/6 67/191/6
f 21/189/7 39/188/7 37/193/7
f 9/195/7 17/194/7 37/193/7
f 1/197/7 16/200/7 34/198/7
f 9/195/7 33/196/7 34/198/7
f 35/202/1 59/336/1 137/203/1
f 137/203/1 58/337/1 52/338/1
f 52/338/1 61/201/1 137/203/1
f 50/204/3 67/339/3 129/205/3
f 2/207/7 30/228/7 41/208/7
f 27/209/5 5/340/5 50/204/5
f 3/210/6 43/341/6 109/211/6
f 11/213/5 51/342/5 52/214/5
f 14/216/5 52/343/5 49/217/5
f 19/219/5 53/344/5 51/220/5
f 23/222/5 54/345/5 53/223/5
f 27/225/5 55/346/5 54/226/5
f 41/208/7 48/149/7 47/180/7
f 39/188/7 47/180/7 46/181/7
f 33/196/7 37/193/7 46/181/7
f 34/198/7 45/164/7 42/166/7
f 34/198/7 33/196/7 44/162/7
f 30/228/7 43/147/7 48/149/7
f 61/229/5 60/347/5 12/230/5
f 51/235/5 60/348/5 61/236/5
f 65/349/1 53/246/1 131/240/1
f 53/246/1 36/238/1 131/240/1
f 127/241/5 128/350/5 70/242/5
f 129/205/5 67/339/5 68/244/5
f 53/246/1 69/351/1 70/247/1
f 94/248/4 16/252/4 1/249/4
f 93/251/4 9/324/4 16/252/4
f 103/253/4 2/352/4 25/254/4
f 76/256/6 92/259/6 50/257/6
f 92/259/6 89/277/6 32/260/6
f 107/261/3 108/281/3 88/150/3
f 28/262/4 87/280/4 85/263/4
f 106/265/3 107/261/3 86/185/3
f 24/264/4 85/263/4 83/266/4
f 104/268/3 106/265/3 84/178/3
f 20/267/4 83/266/4 79/269/4
f 15/271/4 82/276/4 77/272/4
f 105/274/3 81/159/3 75/168/3
f 105/274/3 104/268/3 80/172/3
f 12/270/4 79/269/4 82/276/4
f 89/277/6 78/353/6 7/278/6
f 7/279/4 78/299/4 87/280/4
f 108/281/3 101/284/3 76/282/3
f 26/283/3 3/354/3 101/284/3
f 13/285/3 10/287/3 104/268/3
f 13/285/3 105/274/3 100/275/3
f 10/287/3 18/288/3 106/265/3
f 18/288/3 22/289/3 107/261/3
f 22/289/3 26/283/3 108/281/3
f 101/212/6 109/211/6 92/290/6
f 87/280/4 97/300/4 96/292/4
f 85/263/4 96/292/4 95/293/4
f 83/266/4 95/293/4 93/294/4
f 82/276/4 94/296/4 102/295/4
f 79/269/4 93/294/4 94/296/4
f 121/297/7 122/156/7 111/158/7
f 78/299/4 103/355/4 97/300/4
f 111/301/6 110/356/6 113/302/6
f 112/304/6 111/301/6 115/303/6
f 117/305/6 115/303/6 116/306/6
f 115/303/6 113/302/6 114/308/6
f 149/309/7 122/156/7 121/297/7
f 149/309/7 147/357/7 124/311/7
f 72/312/5 128/318/5 127/313/5
f 73/315/5 129/319/5 130/316/5
f 74/317/5 130/316/5 128/318/5
f 71/314/5 127/313/5 129/319/5
f 40/320/4 130/358/4 68/321/4
f 95/323/4 17/326/4 9/324/4
f 96/325/4 21/327/4 17/326/4
f 97/255/4 25/254/4 21/327/4
f 2/328/7 147/357/7 149/309/7
f 30/329/7 149/309/7 146/310/7
