# Blender v2.82 (sub 7) OBJ File: 'mundo.blend'
# www.blender.org
mtllib Puerta_refri.mtl
o puerta_refri_Cube.036
v -0.031939 -0.470812 0.610627
v -0.031939 -0.470812 -0.025975
v -0.031939 0.453665 0.610627
v -0.031939 0.470812 0.599034
v -0.031939 0.460227 0.609744
v -0.031939 0.465790 0.607231
v -0.031939 0.469507 0.603470
v -0.031939 0.470812 -0.014382
v -0.031939 0.453665 -0.025975
v -0.031939 0.469507 -0.018818
v -0.031939 0.465790 -0.022579
v -0.031939 0.460227 -0.025092
v 0.056988 -0.416950 0.588619
v 0.056987 -0.416950 -0.003967
v 0.056988 0.458354 0.581957
v 0.056988 0.459569 0.577827
v 0.056988 0.454893 0.585458
v 0.056988 0.449715 0.587797
v 0.056988 0.443607 0.588619
v 0.056987 0.459569 0.006824
v 0.056987 0.458354 0.002695
v 0.056987 0.454893 -0.000806
v 0.056987 0.449715 -0.003146
v 0.056987 0.443607 -0.003967
v 0.046821 -0.438810 0.597551
v 0.017009 -0.470812 0.610627
v 0.031939 -0.470812 0.461834
v 0.039990 -0.451057 0.602555
v 0.031925 -0.461439 0.606797
v 0.023855 -0.468376 0.609631
v 0.017009 -0.470812 -0.025975
v 0.046821 -0.438810 -0.012899
v 0.031939 -0.470812 0.122818
v 0.023855 -0.468376 -0.024980
v 0.031925 -0.461439 -0.022145
v 0.039990 -0.451057 -0.017903
v 0.046831 0.464127 0.586426
v 0.017009 0.470812 0.599034
v 0.039996 0.466686 0.591251
v 0.031928 0.468854 0.595341
v 0.023856 0.470303 0.598074
v 0.017009 0.453665 0.610627
v 0.046822 0.447689 0.597550
v 0.023855 0.453210 0.609631
v 0.031925 0.451914 0.606797
v 0.039990 0.449975 0.602554
v 0.017009 0.469507 0.603470
v 0.046829 0.462877 0.590682
v 0.023856 0.469002 0.602497
v 0.031927 0.467565 0.599724
v 0.039994 0.465414 0.595576
v 0.017009 0.465790 0.607231
v 0.046826 0.459314 0.594291
v 0.023855 0.465297 0.606246
v 0.031926 0.463893 0.603441
v 0.039992 0.461792 0.599243
v 0.017009 0.460227 0.609744
v 0.046823 0.453980 0.596703
v 0.023855 0.459751 0.608751
v 0.031925 0.458397 0.605924
v 0.039991 0.456371 0.601694
v 0.046822 0.447689 -0.012899
v 0.017009 0.453665 -0.025975
v 0.039990 0.449975 -0.017903
v 0.031925 0.451914 -0.022145
v 0.023855 0.453210 -0.024980
v 0.017009 0.470812 -0.014382
v 0.046831 0.464127 -0.001774
v 0.023856 0.470303 -0.013422
v 0.031928 0.468854 -0.010689
v 0.039996 0.466686 -0.006599
v 0.046823 0.453980 -0.012051
v 0.017009 0.460227 -0.025092
v 0.039991 0.456371 -0.017042
v 0.031925 0.458397 -0.021273
v 0.023855 0.459751 -0.024100
v 0.046826 0.459314 -0.009639
v 0.017009 0.465790 -0.022579
v 0.039992 0.461792 -0.014591
v 0.031926 0.463893 -0.018789
v 0.023855 0.465297 -0.021594
v 0.046829 0.462877 -0.006030
v 0.017009 0.469507 -0.018818
v 0.039994 0.465414 -0.010924
v 0.031927 0.467565 -0.015073
v 0.023856 0.469002 -0.017845
v -0.031939 -0.470812 0.292326
v -0.031939 0.470159 0.601252
v -0.031939 0.467648 0.605351
v -0.031939 0.463008 0.608488
v -0.031939 0.456946 0.610185
v -0.031939 0.470159 -0.016600
v -0.031939 0.467648 -0.020699
v -0.031939 0.463008 -0.023836
v -0.031939 0.456946 -0.025534
v -0.031939 -0.008574 0.610627
v -0.031939 0.470812 0.292326
v -0.031939 -0.008574 -0.025975
vt 0.979446 0.885750
vt 0.034571 1.000000
vt 0.020553 0.885750
vt 0.258032 0.645474
vt 0.025093 0.742694
vt 0.014649 0.659579
vt 0.620447 0.000000
vt 0.375000 0.000000
vt 0.620447 0.000000
vt 0.868982 0.505387
vt 0.868982 0.992528
vt 0.697557 0.888623
vt 0.490895 1.000000
vt 0.000000 0.500000
vt 1.000000 0.500000
vt 0.500000 0.000000
vt 1.000000 0.550357
vt 0.000000 0.550357
vt 0.872190 0.750000
vt 0.875000 0.750000
vt 0.872190 0.750000
vt 0.625000 0.000000
vt 0.622190 0.000000
vt 0.625000 0.000000
vt 0.873595 0.500000
vt 0.875000 0.500000
vt 0.875000 0.691568
vt 0.268621 0.645554
vt 0.269041 0.728923
vt 0.265953 0.645455
vt 0.266178 0.728894
vt 0.263004 0.645400
vt 0.626758 0.692067
vt 0.626758 0.499063
vt 0.628155 0.499532
vt 0.622190 0.000000
vt 0.000000 0.018211
vt 0.018210 0.000000
vt 1.000000 0.018211
vt 0.621318 0.250000
vt 0.620447 0.250000
vt 0.620447 0.058432
vt 0.871318 0.500000
vt 0.872190 0.500000
vt 0.872190 0.691568
vt 0.253809 0.400933
vt 0.255909 0.000112
vt 0.257051 0.000070
vt 0.263479 0.728920
vt 0.261353 0.728998
vt 0.623595 0.250000
vt 0.622190 0.250000
vt 0.622190 0.058432
vt 0.256093 0.400850
vt 0.258192 0.000028
vt 0.259642 0.000014
vt 0.129004 0.007468
vt 0.000000 0.415646
vt 0.258993 0.400821
vt 0.261092 0.000000
vt 0.262629 0.000016
vt 0.260222 0.645405
vt 0.870447 0.750000
vt 0.870447 0.750000
vt 0.497724 0.250000
vt 0.125000 0.750000
vt 0.125396 0.750000
vt 0.183432 0.750000
vt 0.126504 0.750000
vt 0.125391 0.750000
vt 0.125000 0.750000
vt 0.596682 0.487321
vt 0.643038 0.488238
vt 0.697557 0.609931
vt 0.697843 0.490622
vt 0.752753 0.494111
vt 0.799408 0.498174
vt 0.870080 0.750000
vt 0.871818 0.750000
vt 0.869722 0.750000
vt 0.871531 0.750000
vt 0.870091 0.718365
vt 0.871826 0.718365
vt 0.870447 0.691568
vt 0.875000 0.750000
vt 0.874598 0.750000
vt 0.873485 0.750000
vt 0.874606 0.718364
vt 0.625171 0.000000
vt 0.622256 0.000000
vt 0.625000 0.000000
vt 0.622439 0.000000
vt 0.625168 0.031636
vt 0.622254 0.031637
vt 0.625000 0.058432
vt 0.620364 0.000000
vt 0.620215 0.000000
vt 0.620366 0.031637
vt 0.266981 0.589424
vt 0.264270 0.589330
vt 0.265688 0.523226
vt 0.262940 0.523136
vt 0.264940 0.457038
vt 0.627183 0.719021
vt 0.629553 0.691568
vt 0.630011 0.718298
vt 0.261272 0.589284
vt 0.259902 0.523098
vt 0.262167 0.456952
vt 0.259102 0.456919
vt 0.262067 0.400852
vt 0.258446 0.589298
vt 0.257037 0.523120
vt 0.256211 0.456946
vt 0.256220 0.589372
vt 0.254781 0.523199
vt 0.253935 0.457028
vt 0.000919 0.471695
vt 0.004025 0.537734
vt 0.008847 0.603710
vt 0.998435 0.627350
vt 0.001564 0.627350
vt 0.006020 0.718126
vt 0.993980 0.718126
vt 0.012688 0.808863
vt 0.987312 0.808863
vt 0.375647 0.031638
vt 0.377489 0.000000
vt 0.375662 0.000000
vt 0.375000 0.000000
vt 0.125000 0.691568
vt 0.250000 0.500000
vt 0.965429 1.000000
vt 0.799408 1.000000
vt 0.000000 0.000000
vt 0.490895 0.000000
vt 0.981789 0.000000
vt 0.985274 0.000693
vt 1.000000 0.018210
vt 0.988758 0.001386
vt 0.991712 0.003360
vt 0.994666 0.005334
vt 0.996640 0.008288
vt 0.998614 0.011242
vt 0.999307 0.014726
vt 1.000000 0.981789
vt 0.981790 1.000000
vt 0.999307 0.985274
vt 0.985274 0.999307
vt 0.998614 0.988758
vt 0.996640 0.991712
vt 0.994666 0.994666
vt 0.991712 0.996640
vt 0.988758 0.998614
vt 0.000000 1.000000
vt 0.000000 0.000000
vt 1.000000 0.000000
vt 0.271630 0.729002
vt 0.629553 0.500000
vt 1.000000 1.000000
vt 0.000000 1.000000
vt 0.001386 0.011242
vt 0.005334 0.005334
vt 0.011242 0.001386
vt 0.981789 0.000000
vt 0.988758 0.001386
vt 0.994666 0.005334
vt 0.998614 0.011242
vt 0.870447 0.500000
vt 0.625000 0.250000
vt 0.002099 0.014825
vt 0.264167 0.000031
vt 0.375000 0.250000
vt 0.375000 0.058432
vt 0.125000 0.500000
vt 0.375000 0.500000
vt 0.375000 0.691568
vt 0.316568 0.750000
vn 0.4095 0.9123 0.0000
vn 0.6600 0.0000 -0.7512
vn 0.6600 0.0000 0.7512
vn 0.9067 -0.4217 -0.0000
vn -1.0000 0.0000 0.0000
vn 0.0000 1.0000 0.0000
vn 0.6772 0.5233 0.5172
vn 0.6967 0.2953 0.6537
vn 0.0000 0.7113 0.7029
vn 0.5564 0.7971 -0.2345
vn 0.6772 0.5233 -0.5172
vn 0.0000 0.9593 -0.2823
vn 0.6788 0.0979 0.7278
vn 1.0000 0.0000 -0.0000
vn 0.0000 0.1333 0.9911
vn 0.0000 0.9593 0.2823
vn 0.0000 0.1333 -0.9911
vn 0.6788 0.0979 -0.7278
vn 0.0000 0.4117 0.9113
vn 0.0000 0.4117 -0.9113
vn 0.0000 0.0000 -1.0000
vn 0.0000 0.7113 -0.7029
vn 0.6967 0.2953 -0.6537
vn 0.5564 0.7971 0.2345
vn 0.0000 0.0000 1.0000
vn 0.8762 -0.4816 0.0175
vn 0.7968 -0.6030 0.0391
vn 0.6609 -0.7489 0.0485
vn 0.3394 -0.9400 0.0341
vn 0.3394 -0.9400 -0.0341
vn 0.6609 -0.7489 -0.0485
vn 0.7968 -0.6030 -0.0391
vn 0.8762 -0.4816 -0.0175
vn 0.4874 0.8377 0.2464
vn 0.3721 0.8904 0.2620
vn 0.2587 0.9267 0.2726
vn 0.1102 0.9535 0.2805
vn 0.6088 0.5643 0.5576
vn 0.4827 0.6230 0.6156
vn 0.3454 0.6675 0.6597
vn 0.1506 0.7031 0.6949
vn 0.6293 0.3200 0.7082
vn 0.5027 0.3559 0.7878
vn 0.3620 0.3838 0.8495
vn 0.1587 0.4065 0.8998
vn 0.6104 0.1056 0.7851
vn 0.4842 0.1167 0.8672
vn 0.3466 0.1250 0.9296
vn 0.1512 0.1318 0.9797
vn 0.4874 0.8377 -0.2464
vn 0.3721 0.8904 -0.2619
vn 0.2587 0.9267 -0.2726
vn 0.1102 0.9535 -0.2805
vn 0.6088 0.5643 -0.5576
vn 0.4827 0.6230 -0.6155
vn 0.3454 0.6675 -0.6596
vn 0.1506 0.7032 -0.6949
vn 0.6293 0.3200 -0.7082
vn 0.5027 0.3560 -0.7878
vn 0.3620 0.3838 -0.8495
vn 0.1587 0.4065 -0.8998
vn 0.6104 0.1056 -0.7850
vn 0.4842 0.1166 -0.8672
vn 0.3466 0.1250 -0.9296
vn 0.1512 0.1317 -0.9797
vn 0.1439 0.0000 -0.9896
vn 0.3314 0.0000 -0.9435
vn 0.4655 0.0000 -0.8850
vn 0.5909 0.0000 -0.8067
vn 0.0741 0.9972 0.0000
vn 0.1767 0.9843 0.0000
vn 0.2596 0.9657 0.0000
vn 0.3505 0.9366 0.0000
vn 0.1439 0.0000 0.9896
vn 0.3314 0.0000 0.9435
vn 0.4655 0.0000 0.8850
vn 0.5909 0.0000 0.8067
vn 0.0000 -1.0000 0.0000
vn 0.5564 0.7971 -0.2346
vn 0.0000 0.9593 0.2822
vn 0.0000 0.7112 -0.7029
vn 0.5564 0.7971 0.2346
vn 0.3722 0.8905 0.2619
vn 0.4827 0.6230 0.6155
vn 0.3454 0.6675 0.6596
vn 0.1506 0.7032 0.6949
vn 0.5027 0.3560 0.7878
vn 0.4842 0.1166 0.8672
vn 0.3721 0.8904 -0.2620
vn 0.2586 0.9267 -0.2726
vn 0.6088 0.5643 -0.5577
vn 0.4827 0.6230 -0.6156
vn 0.3454 0.6675 -0.6597
vn 0.1506 0.7031 -0.6949
vn 0.6293 0.3200 -0.7083
vn 0.5027 0.3559 -0.7878
vn 0.6104 0.1056 -0.7851
vn 0.4842 0.1167 -0.8672
vn 0.3466 0.1251 -0.9296
vn 0.1512 0.1318 -0.9797
vn 0.0741 0.9973 -0.0000
g puerta_refri_Cube.036_Refri
usemtl Refri
s off
f 37/1/1 20/2/1 68/3/1
f 62/4/2 14/5/2 32/6/2
f 43/7/3 13/8/3 19/9/3
f 14/10/4 13/11/4 27/12/4
f 98/13/5 87/14/5 97/15/5
f 97/16/6 38/17/6 67/18/6
f 48/19/7 17/20/7 15/21/7
f 53/22/8 18/23/8 17/24/8
f 89/25/9 6/26/9 52/27/9
f 68/28/10 21/29/10 82/30/10
f 82/30/11 22/31/11 77/32/11
f 83/33/12 10/34/12 92/35/12
f 43/7/13 18/23/13 58/36/13
f 24/37/14 20/38/14 19/39/14
f 91/40/15 3/41/15 42/42/15
f 88/43/16 7/44/16 47/45/16
f 63/46/17 9/47/17 95/48/17
f 62/4/18 23/49/18 24/50/18
f 90/51/19 5/52/19 57/53/19
f 73/54/20 12/55/20 94/56/20
f 98/57/21 63/46/21 31/58/21
f 78/59/22 11/60/22 93/61/22
f 77/32/23 23/49/23 72/62/23
f 37/63/24 15/21/24 16/64/24
f 42/42/25 3/41/25 96/65/25
f 25/66/26 28/67/26 27/68/26
f 28/67/27 29/69/27 27/68/27
f 29/69/28 30/70/28 27/68/28
f 30/70/29 26/71/29 27/68/29
f 31/72/30 34/73/30 33/74/30
f 34/73/31 35/75/31 33/74/31
f 35/75/32 36/76/32 33/74/32
f 36/76/33 32/77/33 33/74/33
f 48/19/34 39/78/34 51/79/34
f 51/79/35 40/80/35 50/81/35
f 50/81/36 41/82/36 49/83/36
f 49/83/37 38/84/37 47/45/37
f 53/85/38 51/79/38 56/86/38
f 56/86/39 50/81/39 55/87/39
f 55/87/40 49/83/40 54/88/40
f 54/88/41 47/45/41 52/27/41
f 58/36/42 56/89/42 61/90/42
f 61/90/43 55/91/43 60/92/43
f 60/92/44 54/93/44 59/94/44
f 59/94/45 52/95/45 57/53/45
f 58/36/46 46/96/46 43/7/46
f 61/90/47 45/97/47 46/96/47
f 60/92/48 44/98/48 45/97/48
f 59/94/49 42/42/49 44/98/49
f 82/30/50 71/99/50 68/28/50
f 84/100/51 70/101/51 71/99/51
f 85/102/52 69/103/52 70/101/52
f 86/104/53 67/105/53 69/106/53
f 77/32/54 84/100/54 82/30/54
f 79/107/55 85/102/55 84/100/55
f 80/108/56 86/109/56 85/102/56
f 81/110/57 83/111/57 86/109/57
f 72/62/58 79/107/58 77/32/58
f 74/112/59 80/108/59 79/107/59
f 75/113/60 81/110/60 80/108/60
f 76/114/61 78/59/61 81/110/61
f 72/62/62 64/115/62 74/112/62
f 74/112/63 65/116/63 75/113/63
f 75/113/64 66/117/64 76/114/64
f 76/114/65 63/46/65 73/54/65
f 63/46/66 34/118/66 31/58/66
f 66/117/67 35/119/67 34/118/67
f 65/116/68 36/120/68 35/119/68
f 64/115/69 32/6/69 36/120/69
f 67/18/70 41/121/70 69/122/70
f 41/121/71 70/123/71 69/122/71
f 40/124/72 71/125/72 70/123/72
f 39/126/73 68/3/73 71/125/73
f 42/42/74 30/127/74 44/98/74
f 44/98/75 29/128/75 45/97/75
f 45/97/76 28/129/76 46/96/76
f 46/96/77 25/130/77 43/7/77
f 27/68/78 26/131/78 87/132/78
f 37/1/1 16/133/1 20/2/1
f 62/4/2 24/50/2 14/5/2
f 43/7/3 25/130/3 13/8/3
f 13/11/4 25/134/4 27/12/4
f 27/12/4 33/74/4 14/10/4
f 33/74/4 32/77/4 14/10/4
f 87/14/5 1/135/5 96/136/5
f 96/136/5 3/137/5 97/15/5
f 3/137/5 91/138/5 4/139/5
f 97/15/5 3/137/5 4/139/5
f 91/138/5 5/140/5 90/141/5
f 90/141/5 6/142/5 89/143/5
f 89/143/5 7/144/5 88/145/5
f 88/145/5 4/139/5 91/138/5
f 97/15/5 8/146/5 9/147/5
f 8/146/5 92/148/5 95/149/5
f 92/148/5 10/150/5 93/151/5
f 93/151/5 11/152/5 94/153/5
f 94/153/5 12/154/5 95/149/5
f 95/149/5 9/147/5 8/146/5
f 9/147/5 98/13/5 97/15/5
f 98/13/5 2/155/5 87/14/5
f 87/14/5 96/136/5 97/15/5
f 91/138/5 90/141/5 89/143/5
f 89/143/5 88/145/5 91/138/5
f 92/148/5 93/151/5 95/149/5
f 93/151/5 94/153/5 95/149/5
f 67/18/6 8/156/6 97/16/6
f 97/16/6 4/157/6 38/17/6
f 48/19/7 53/85/7 17/20/7
f 53/22/8 58/36/8 18/23/8
f 52/27/9 47/45/9 89/25/9
f 47/45/9 7/44/9 89/25/9
f 68/28/79 20/158/79 21/29/79
f 82/30/11 21/29/11 22/31/11
f 92/35/12 8/159/12 67/105/12
f 67/105/12 83/33/12 92/35/12
f 43/7/13 19/9/13 18/23/13
f 13/160/14 14/161/14 24/37/14
f 24/37/14 23/162/14 22/163/14
f 22/163/14 21/164/14 20/38/14
f 20/38/14 16/165/14 19/39/14
f 16/165/14 15/166/14 19/39/14
f 15/166/14 17/167/14 18/168/14
f 18/168/14 19/39/14 15/166/14
f 19/39/14 13/160/14 24/37/14
f 24/37/14 22/163/14 20/38/14
f 42/42/15 57/53/15 91/40/15
f 57/53/15 5/52/15 91/40/15
f 47/45/16 38/84/16 88/43/16
f 38/84/80 4/169/80 88/43/80
f 95/48/17 12/55/17 73/54/17
f 73/54/17 63/46/17 95/48/17
f 62/4/18 72/62/18 23/49/18
f 57/53/19 52/95/19 90/51/19
f 52/95/19 6/170/19 90/51/19
f 94/56/20 11/60/20 78/59/20
f 78/59/20 73/54/20 94/56/20
f 31/58/21 2/171/21 98/57/21
f 98/57/21 9/47/21 63/46/21
f 93/61/81 10/172/81 83/111/81
f 83/111/81 78/59/81 93/61/81
f 77/32/23 22/31/23 23/49/23
f 37/63/82 48/19/82 15/21/82
f 1/173/25 26/174/25 96/65/25
f 26/174/25 42/42/25 96/65/25
f 48/19/34 37/63/34 39/78/34
f 51/79/83 39/78/83 40/80/83
f 50/81/36 40/80/36 41/82/36
f 49/83/37 41/82/37 38/84/37
f 53/85/38 48/19/38 51/79/38
f 56/86/84 51/79/84 50/81/84
f 55/87/85 50/81/85 49/83/85
f 54/88/86 49/83/86 47/45/86
f 58/36/42 53/22/42 56/89/42
f 61/90/87 56/89/87 55/91/87
f 60/92/44 55/91/44 54/93/44
f 59/94/45 54/93/45 52/95/45
f 58/36/46 61/90/46 46/96/46
f 61/90/88 60/92/88 45/97/88
f 60/92/48 59/94/48 44/98/48
f 59/94/49 57/53/49 42/42/49
f 82/30/50 84/100/50 71/99/50
f 84/100/89 85/102/89 70/101/89
f 85/102/90 86/109/90 69/103/90
f 86/104/53 83/33/53 67/105/53
f 77/32/91 79/107/91 84/100/91
f 79/107/92 80/108/92 85/102/92
f 80/108/93 81/110/93 86/109/93
f 81/110/94 78/59/94 83/111/94
f 72/62/95 74/112/95 79/107/95
f 74/112/96 75/113/96 80/108/96
f 75/113/60 76/114/60 81/110/60
f 76/114/61 73/54/61 78/59/61
f 72/62/97 62/4/97 64/115/97
f 74/112/98 64/115/98 65/116/98
f 75/113/99 65/116/99 66/117/99
f 76/114/100 66/117/100 63/46/100
f 63/46/66 66/117/66 34/118/66
f 66/117/67 65/116/67 35/119/67
f 65/116/68 64/115/68 36/120/68
f 64/115/69 62/4/69 32/6/69
f 67/18/101 38/17/101 41/121/101
f 41/121/71 40/124/71 70/123/71
f 40/124/72 39/126/72 71/125/72
f 39/126/73 37/1/73 68/3/73
f 42/42/74 26/174/74 30/127/74
f 44/98/75 30/127/75 29/128/75
f 45/97/76 29/128/76 28/129/76
f 46/96/77 28/129/77 25/130/77
f 26/131/78 1/175/78 87/132/78
f 87/132/78 2/176/78 31/177/78
f 31/177/78 33/178/78 87/132/78
f 33/178/78 27/68/78 87/132/78
