# Blender v2.82 (sub 7) OBJ File: 'mundo.blend'
# www.blender.org
mtllib puerta.mtl
o puerta_Cube.001
v 0.050833 0.047179 0.358580
v 0.050833 1.940113 0.358580
v 0.050833 0.047179 -0.358580
v 0.050833 1.940113 -0.358580
v -0.050833 0.047179 0.358580
v -0.050833 1.940113 0.358580
v -0.050833 0.047179 -0.358580
v -0.050833 1.940113 -0.358580
vt 0.346972 0.212262
vt 0.346972 0.096829
vt 0.423379 0.096829
vt 0.495680 0.369589
vt 0.495680 0.380411
vt 0.501911 0.380411
vt 0.421828 0.210662
vt 0.421828 0.098357
vt 0.345165 0.098358
vt 0.552890 0.348983
vt 0.552890 0.379334
vt 0.555543 0.379334
vt 0.375000 0.500000
vt 0.125000 0.500000
vt 0.125000 0.750000
vt 0.383330 0.350365
vt 0.383330 0.389148
vt 0.470589 0.389148
vt 0.423379 0.212262
vt 0.501911 0.369589
vt 0.345165 0.210662
vt 0.555543 0.348983
vt 0.375000 0.750000
vt 0.470589 0.350365
vn 1.0000 0.0000 0.0000
vn 0.0000 0.0000 -1.0000
vn -1.0000 0.0000 0.0000
vn 0.0000 0.0000 1.0000
vn 0.0000 -1.0000 0.0000
vn 0.0000 1.0000 0.0000
g puerta_Cube.001_FACHADA
usemtl FACHADA
s off
f 2/1/1 1/2/1 3/3/1
f 4/4/2 3/5/2 7/6/2
f 8/7/3 7/8/3 5/9/3
f 6/10/4 5/11/4 1/12/4
f 7/13/5 3/14/5 1/15/5
f 4/16/6 8/17/6 6/18/6
f 2/1/1 3/3/1 4/19/1
f 4/4/2 7/6/2 8/20/2
f 8/7/3 5/9/3 6/21/3
f 6/10/4 1/12/4 2/22/4
f 7/13/5 1/15/5 5/23/5
f 4/16/6 6/18/6 2/24/6
