# Blender v2.82 (sub 7) OBJ File: 'mundo.blend'
# www.blender.org
mtllib puerta.mtl
o puerta_Cube.001
v 0.040134 -0.006354 0.358580
v 0.040134 1.993646 0.358580
v 0.040134 -0.006354 -0.358580
v 0.040134 1.993646 -0.358580
v -0.040134 -0.006354 0.358580
v -0.040134 1.993646 0.358580
v -0.040134 -0.006354 -0.358580
v -0.040134 1.993646 -0.358580
vt 0.346972 0.212262
vt 0.346972 0.096829
vt 0.423379 0.096829
vt 0.625000 0.250000
vt 0.375000 0.250000
vt 0.375000 0.500000
vt 0.421828 0.210662
vt 0.421828 0.098357
vt 0.345165 0.098358
vt 0.625000 0.750000
vt 0.375000 0.750000
vt 0.375000 1.000000
vt 0.125000 0.500000
vt 0.125000 0.750000
vt 0.875000 0.500000
vt 0.625000 0.500000
vt 0.423379 0.212262
vt 0.345165 0.210662
vt 0.625000 1.000000
vt 0.875000 0.750000
vn 1.0000 0.0000 0.0000
vn 0.0000 0.0000 -1.0000
vn -1.0000 0.0000 0.0000
vn 0.0000 0.0000 1.0000
vn 0.0000 -1.0000 0.0000
vn 0.0000 1.0000 0.0000
g puerta_Cube.001_FACHADA
usemtl FACHADA
s off
f 2/1/1 1/2/1 3/3/1
f 4/4/2 3/5/2 7/6/2
f 8/7/3 7/8/3 5/9/3
f 6/10/4 5/11/4 1/12/4
f 7/6/5 3/13/5 1/14/5
f 4/15/6 8/16/6 6/10/6
f 2/1/1 3/3/1 4/17/1
f 4/4/2 7/6/2 8/16/2
f 8/7/3 5/9/3 6/18/3
f 6/10/4 1/12/4 2/19/4
f 7/6/5 1/14/5 5/11/5
f 4/15/6 6/10/6 2/20/6
