# Blender v2.82 (sub 7) OBJ File: ''
# www.blender.org
mtllib puerta.mtl
o puerta_Cube.001
v 2.551329 -0.006354 1.107046
v 2.551329 1.993646 1.107046
v 2.551329 -0.006354 0.389886
v 2.551329 1.993646 0.389886
v 2.471061 -0.006354 1.107046
v 2.471061 1.993646 1.107046
v 2.471061 -0.006354 0.389886
v 2.471061 1.993646 0.389886
vt 0.346972 0.212262
vt 0.346972 0.096829
vt 0.423379 0.096829
vt 0.625000 0.250000
vt 0.375000 0.250000
vt 0.375000 0.500000
vt 0.625000 0.500000
vt 0.375000 0.750000
vt 0.625000 0.750000
vt 0.375000 1.000000
vt 0.125000 0.500000
vt 0.125000 0.750000
vt 0.875000 0.500000
vt 0.423379 0.212262
vt 0.625000 1.000000
vt 0.875000 0.750000
vn 1.0000 0.0000 0.0000
vn 0.0000 0.0000 -1.0000
vn -1.0000 0.0000 0.0000
vn 0.0000 0.0000 1.0000
vn 0.0000 -1.0000 0.0000
vn 0.0000 1.0000 0.0000
g puerta_Cube.001_FACHADA
usemtl FACHADA
s off
f 2/1/1 1/2/1 3/3/1
f 4/4/2 3/5/2 7/6/2
f 8/7/3 7/6/3 5/8/3
f 6/9/4 5/8/4 1/10/4
f 7/6/5 3/11/5 1/12/5
f 4/13/6 8/7/6 6/9/6
f 2/1/1 3/3/1 4/14/1
f 4/4/2 7/6/2 8/7/2
f 8/7/3 5/8/3 6/9/3
f 6/9/4 1/10/4 2/15/4
f 7/6/5 1/12/5 5/8/5
f 4/13/6 6/9/6 2/16/6
